<svg id="e2kqugc7l0Y1" xmlns="http://www.w3.org/2000/svg" xmlns:xlink="http://www.w3.org/1999/xlink" viewBox="0 0 1024 1024" shape-rendering="geometricPrecision" text-rendering="geometricPrecision"><g transform="matrix(1.5 0 0 1.5-340.122223-184.164223)" clip-rule="evenodd"><path d="M737.405,543.362v33.227c0,12.437.291,20.578.874,24.426.583,3.847,2.157,6.704,4.722,8.569s7.384,2.798,14.457,2.798h5.247v5.363h-72.402v-5.363h4.197c6.762,0,11.445-.855,14.049-2.565s4.256-4.372,4.955-7.986c.7-3.614,1.049-12.028,1.049-25.242v-77.531c0-12.591-.349-20.714-1.049-24.367-.699-3.653-2.254-6.179-4.663-7.578-2.41-1.399-7.617-2.099-15.623-2.099h-2.915v-5.363l19.82-.699c15.856-.544,28.215-.816,37.075-.816c16.323,0,28.895,1.282,37.717,3.847s16.05,7.112,21.685,13.641s8.453,14.768,8.453,24.717c0,8.627-1.924,16.244-5.771,22.851-3.848,6.607-9.366,11.62-16.556,15.04s-19.839,5.13-37.949,5.13h-17.372Zm0-5.83h11.309c9.094,0,16.439-.913,22.035-2.74c5.596-1.826,10.26-5.654,13.991-11.483c3.731-5.83,5.596-13.02,5.596-21.569c0-13.058-3.206-22.638-9.619-28.739-6.412-6.102-16.808-9.153-31.187-9.153-5.285,0-9.327.156-12.125.467v73.217Z" clip-rule="evenodd" fill="#bb9b49" stroke-linecap="round" stroke-linejoin="round" stroke-miterlimit="10"/><path d="M675.552,519.807c2.041,3.98,1.072,6.991-2.908,9.033-3.107,1.594-5.53.813-7.271-2.341-1.541-2.765-3.185-3.7-4.933-2.803-2.427,1.245-4.403,5.998-5.928,14.261-1.294,7.04-1.936,13.439-1.925,19.197c6.45,5.643,11.818,9.235,16.104,10.777s8.273,1.366,11.962-.526c4.757-2.44,7.422-6.688,7.994-12.745.176-1.808.556-2.861,1.138-3.159.486-.249.853-.131,1.102.354.597,1.165.091,4.123-1.519,8.873-2.272,6.806-6.418,11.753-12.437,14.84-4.854,2.49-9.21,3.56-13.069,3.209-3.858-.351-8.539-2.303-14.041-5.857-2.361,12.37-8.735,21.219-19.123,26.547-8.543,4.382-16.35,5.658-23.42,3.828s-12.547-6.532-16.431-14.104c-5.578-10.873-4.355-22.475,3.667-34.806c2.593-4.028,7.36-10.274,14.3-18.739-7.011-7.93-11.463-13.74-13.355-17.429-3.884-7.573-4.499-15.167-1.845-22.782s7.962-13.465,15.922-17.548c6.019-3.087,11.841-4.05,17.464-2.888c5.624,1.162,9.681,4.17,12.171,9.024c3.087,6.019,2.691,12.538-1.19,19.556-1.869,3.288-6.969,10.319-15.3,21.091-.336.54-.962,1.352-1.878,2.435c3.209,3.627,8.188,8.553,14.938,14.778c2.512,2.268,7.045,6.564,13.601,12.889.85-12.208,2.26-20.994,4.23-26.358c1.97-5.363,5.09-9.141,9.362-11.332c2.621-1.344,5.105-1.76,7.453-1.248c2.348.513,4.069,1.837,5.165,3.973Zm-47.385-31.059c-4.731-9.223-10.931-11.867-18.601-7.933-4.465,2.29-7.15,5.782-8.053,10.476s.114,9.905,3.052,15.633c2.888,5.631,7.537,11.585,13.945,17.862.239-.49.889-1.375,1.949-2.655c5.488-7.23,8.746-13.07,9.774-17.521c1.212-5.527.523-10.814-2.066-15.862Zm18.413,82.155c-10.476-7.992-22.522-19.164-36.138-33.517l-1.803,2.58c-5.001,7.225-8.066,12.844-9.196,16.857-2.162,7.976-1.252,15.848,2.732,23.614c3.386,6.602,7.898,11.093,13.534,13.475s11.172,2.179,16.609-.61c9.029-4.631,13.783-12.097,14.262-22.399Z" clip-rule="evenodd" fill="#bb9b49" stroke-linecap="round" stroke-linejoin="round" stroke-miterlimit="10"/><g clip-rule="evenodd"><path d="M321.11,672.372h248.041v45.345h-248.041v-45.345Z" clip-rule="evenodd" fill="#bb9b49" stroke="#bb9b49" stroke-width="10" stroke-linejoin="round" stroke-miterlimit="10"/><path d="M360.912,684.216l31.448-69.438" clip-rule="evenodd" fill="#bb9b49" stroke="#bb9b49" stroke-width="17.2997" stroke-linejoin="round" stroke-miterlimit="10"/><path d="M504.506,625.79l28.551,60.736" clip-rule="evenodd" fill="#bb9b49" stroke="#bb9b49" stroke-width="17.1017" stroke-linejoin="round" stroke-miterlimit="10"/><path d="M379.633,641.755h-.776" clip-rule="evenodd" fill="#bb9b49" stroke="#bb9b49" stroke-width="10" stroke-linejoin="round" stroke-miterlimit="10"/><path d="M383.94,628.115l121.845,1.915" clip-rule="evenodd" fill="#bb9b49" stroke="#bb9b49" stroke-width="10" stroke-linejoin="round" stroke-miterlimit="10"/><path d="M385.256,588.153c0-24.559,31.483-49.652,60.016-49.652s59.731,26.254,59.731,50.813c0,24.56-30.622,39.851-59.155,39.851s-60.592-16.453-60.592-41.012Z" clip-rule="evenodd" fill="#bb9b49" stroke="#bb9b49" stroke-width="10" stroke-linejoin="round" stroke-miterlimit="10"/><path d="M383.793,624.452c0,14.083-3.987-29.589,2.311-42.185" clip-rule="evenodd" fill="#bb9b49" stroke="#bb9b49" stroke-width="10" stroke-linecap="round" stroke-linejoin="round" stroke-miterlimit="10"/><path d="M505.147,585.445c5.996,11.994,2.311,53.572,2.311,40.163" clip-rule="evenodd" fill="#bb9b49" stroke="#bb9b49" stroke-width="10" stroke-linecap="round" stroke-linejoin="round" stroke-miterlimit="10"/><path d="M397.461,615.235c-.663-.663-1.165-1.122-1.709-1.994-.16-.255-.017-.989-.285-.855-.726.363-.285,4.059-.285,4.844c0,.474,0,.949,0,1.424c0,.19.134.704,0,.57-.933-.932-.855-3.356-.855-4.558c0-1.444.085.339-.285-1.14-.046-.184,0-.76,0-.57c0,1.52,0,3.039,0,4.558c0,.475,0,1.9,0,1.425c0-1.515-.57-2.802-.57-4.273c0-.827-.285-1.471-.285-2.28c0-.19.19-.569,0-.569-.212,0-.233.363-.284.569-.254,1.016-.285,2.671-.285,3.704c0,.665.664,1.994,0,1.994-.942,0-.855-6.247-.855-7.122c0-.285.285-.855,0-.855-.3,0-.236.559-.285.855-.342,2.05,0,4.47,0,6.552c0,.57,0,1.14,0,1.71c0,.19,0,.76,0,.57c0-1.71,0-3.419,0-5.128c0-.57.255-2.22,0-1.71-.351.702-.44,2.069-.57,2.849-.078.469-.407,4.151,0,4.558.575.575,2.853-.741,3.419-.854c2.581-.516,8.122-1.28,10.256.854c1.983,1.983-2.645,1.425-3.703,1.425-.285,0-.855.285-.855,0c0-.332,5.114-.278,5.698-.57" clip-rule="evenodd" fill="#bb9b49" stroke="#bb9b49" stroke-width="10" stroke-linecap="round" stroke-linejoin="round" stroke-miterlimit="10"/><path d="M487.488,622.643c-2.204-1.103-1.047-1.972,1.14-1.425c1.218.305,2.439,1.545,3.419,2.279.002.002,1.89.907,1.424,1.14-2.447,1.223-7.431-3.419-1.994-3.419.759,0,1.568-.267,2.279,0c.955.358,2.203,1.789,2.849,2.564.354.426.301,1.425.855,1.425.577,0,.366-1.138.284-1.71-.357-2.505-1.139-4.849-1.139-7.407c0-.19-.17-.485,0-.57.508-.254,2.262,4.239,2.564,4.843.19.38.38,1.52.57,1.14.599-1.198,0-4.329,0-5.698c0-.95,0-2.849,0-2.849s-.075.767,0,1.14c.294,1.469,1.007,2.812,1.424,4.273.159.556.285,2.287.285,1.71c0-3.609,0-7.218,0-10.827" clip-rule="evenodd" fill="#bb9b49" stroke="#bb9b49" stroke-width="10" stroke-linecap="round" stroke-linejoin="round" stroke-miterlimit="10"/><path d="M354.082,420.587c14.966,44.897,28.978,95.649,49.95,137.594" clip-rule="evenodd" fill="#bb9b49" stroke="#bb9b49" stroke-width="17.2515" stroke-linecap="round" stroke-linejoin="round" stroke-miterlimit="10"/><path d="M423.645,404.346c12.241,48.964,34.778,95.447,50.563,142.803" clip-rule="evenodd" fill="#bb9b49" stroke="#bb9b49" stroke-width="17.0218" stroke-linecap="round" stroke-linejoin="round" stroke-miterlimit="10"/><path d="M371.409,329.753L488.355,226.869" clip-rule="evenodd" fill="#bb9b49" stroke="#bb9b49" stroke-width="17.2792" stroke-linejoin="round" stroke-miterlimit="10"/><path d="M432.025,365.595l96.473-85.884" clip-rule="evenodd" fill="#bb9b49" stroke="#bb9b49" stroke-width="17.4601" stroke-linejoin="round" stroke-miterlimit="10"/><path d="M518.138,280.874l80.15,104.746" clip-rule="evenodd" fill="#bb9b49" stroke="#bb9b49" stroke-width="17.1006" stroke-linejoin="round" stroke-miterlimit="10"/><path d="M630.957,350.001L547.038,243.65" clip-rule="evenodd" fill="#bb9b49" stroke="#bb9b49" stroke-width="17.0496" stroke-linejoin="round" stroke-miterlimit="10"/><path d="M474.207,250.397c0-22.033,17.359-39.895,38.771-39.895c21.413,0,38.772,17.862,38.772,39.895s-17.359,39.895-38.772,39.895c-21.412,0-38.771-17.862-38.771-39.895Z" clip-rule="evenodd" fill="#bb9b49" stroke="#bb9b49" stroke-width="10" stroke-linecap="round" stroke-linejoin="round" stroke-miterlimit="10"/><path d="M331.668,374.561c0-30.627,24.076-55.455,53.775-55.455c29.7,0,53.776,24.828,53.776,55.455s-24.076,55.454-53.776,55.454c-29.699,0-53.775-24.827-53.775-55.454Z" clip-rule="evenodd" fill="#bb9b49" stroke="#bb9b49" stroke-width="10" stroke-linecap="round" stroke-linejoin="round" stroke-miterlimit="10"/></g><g clip-rule="evenodd"><path d="M589.754,382.542c0-19.493,15.012-35.295,33.53-35.295s33.53,15.802,33.53,35.295c0,19.492-15.012,35.294-33.53,35.294s-33.53-15.802-33.53-35.294Z" clip-rule="evenodd" fill="#bb9b49" stroke="#bb9b49" stroke-width="10" stroke-linecap="round" stroke-linejoin="round" stroke-miterlimit="10"/><g clip-rule="evenodd"><path d="M592.798,482.587l1.234,7.492l1.235,7.492l1.455,6.69l1.456,6.691" clip-rule="evenodd" fill="#bb9b49" stroke="#bb9b49" stroke-width="10.7422" stroke-linejoin="round" stroke-miterlimit="10"/><path d="M633.562,474.625l-44.781,8.75l1.938,9.813l44.75-8.75-1.907-9.813Z" clip-rule="evenodd" fill="#bb9b49" stroke="#bb9b49" stroke-width="0.72929" stroke-linejoin="round" stroke-miterlimit="10"/><path d="M649.711,494.978l-28.709,6.179-28.709,6.179" clip-rule="evenodd" fill="#bb9b49" stroke="#bb9b49" stroke-width="10.7422" stroke-linejoin="round" stroke-miterlimit="10"/><path d="M653.869,433.318l-11.424,24.46-11.425,24.46" clip-rule="evenodd" fill="#bb9b49" stroke="#bb9b49" stroke-width="10.7422" stroke-linejoin="round" stroke-miterlimit="10"/><path d="M674.592,432.497l-29.041,65.532" clip-rule="evenodd" fill="#bb9b49" stroke="#bb9b49" stroke-width="10.7422" stroke-linejoin="round" stroke-miterlimit="10"/><path d="M637.814,415.333l16.52,23.722" clip-rule="evenodd" fill="#bb9b49" stroke="#bb9b49" stroke-width="10.7422" stroke-linejoin="round" stroke-miterlimit="10"/><path d="M651.497,402.367l23.592,35.11" clip-rule="evenodd" fill="#bb9b49" stroke="#bb9b49" stroke-width="10.7422" stroke-linejoin="round" stroke-miterlimit="10"/><path d="M595.705,488.92l2.412,17.487" clip-rule="evenodd" fill="#bb9b49" stroke="#bb9b49" stroke-width="10.7422" stroke-linejoin="round" stroke-miterlimit="10"/></g><g clip-rule="evenodd"><path d="M569.217,472.937l-14.147,6.771L542,485.192" clip-rule="evenodd" fill="#bb9b49" stroke="#bb9b49" stroke-width="9.77922" stroke-linejoin="round" stroke-miterlimit="10"/><path d="M546.046,436.482l19.226,42.109" clip-rule="evenodd" fill="none" stroke="#bb9b49" stroke-width="11.7363" stroke-linejoin="round" stroke-miterlimit="10"/><path d="M524.603,433.519l23.791,54.284" clip-rule="evenodd" fill="#bb9b49" stroke="#bb9b49" stroke-width="11.7363" stroke-linejoin="round" stroke-miterlimit="10"/><path d="M571.8,394.637l-26.04,47.092" clip-rule="evenodd" fill="#bb9b49" stroke="#bb9b49" stroke-width="11.7363" stroke-linejoin="round" stroke-miterlimit="10"/><path d="M560.611,376.877L524.239,438.71" clip-rule="evenodd" fill="#bb9b49" stroke="#bb9b49" stroke-width="11.7363" stroke-linejoin="round" stroke-miterlimit="10"/><path d="M595.723,396.717l-28.9.689" clip-rule="evenodd" fill="#bb9b49" stroke="#bb9b49" stroke-width="11.7363" stroke-linejoin="round" stroke-miterlimit="10"/><path d="M588.593,379.056l-32.76.673" clip-rule="evenodd" fill="#bb9b49" stroke="#bb9b49" stroke-width="11.7363" stroke-linejoin="round" stroke-miterlimit="10"/></g></g></g></svg>
