<?xml version="1.0" standalone="no"?>
<!DOCTYPE svg PUBLIC "-//W3C//DTD SVG 20010904//EN"
 "http://www.w3.org/TR/2001/REC-SVG-20010904/DTD/svg10.dtd">
<svg version="1.0" xmlns="http://www.w3.org/2000/svg"
 width="700.000000pt" height="700.000000pt" viewBox="0 0 700.000000 700.000000"
 preserveAspectRatio="xMidYMid meet">
<metadata>
Created by potrace 1.14, written by Peter Selinger 2001-2017
</metadata>
<g transform="translate(0.000000,700.000000) scale(0.100000,-0.100000)"
fill="#000000" stroke="none">
<path d="M3447 5588 c-72 -15 -129 -52 -183 -119 -10 -13 -53 -53 -94 -89 -41
-36 -77 -67 -80 -70 -3 -3 -41 -37 -85 -75 -44 -39 -95 -84 -115 -101 -226
-202 -326 -284 -358 -295 -112 -36 -202 -111 -250 -206 -33 -65 -41 -96 -47
-177 -7 -92 34 -218 91 -279 16 -18 43 -84 79 -194 127 -397 175 -533 245
-695 l41 -97 -27 -36 c-53 -70 -76 -156 -80 -305 l-5 -134 -61 -138 -62 -138
-45 -1 c-26 0 -86 -1 -136 -1 -49 0 -96 -4 -102 -10 -18 -14 -18 -339 -1 -356
18 -18 1733 -17 1745 1 4 6 8 88 8 181 0 200 13 185 -156 185 -81 -1 -115 3
-124 12 -7 8 -39 70 -71 139 l-58 125 -7 125 c-10 199 -60 311 -182 406 -16
13 -36 50 -55 105 -16 46 -75 201 -130 344 -55 143 -117 313 -138 379 -34 107
-36 121 -25 150 40 94 54 147 55 205 2 63 2 64 53 110 66 60 191 171 215 192
10 9 50 45 88 79 38 34 80 71 92 81 13 11 35 31 50 44 l26 25 64 -82 c36 -46
95 -122 131 -170 37 -49 96 -126 132 -173 59 -77 63 -85 43 -86 -13 -1 -47 -2
-76 -3 -34 -1 -57 -7 -63 -16 -5 -8 -25 -42 -44 -75 -20 -33 -40 -67 -45 -75
-5 -8 -41 -70 -80 -138 l-72 -123 20 -42 c10 -23 45 -103 77 -177 32 -74 61
-139 65 -143 8 -10 190 72 190 85 0 5 -18 48 -41 96 -78 166 -76 151 -33 229
20 37 50 93 67 123 l30 55 51 0 c48 0 54 -3 102 -51 62 -63 130 -89 209 -81
57 6 62 3 112 -69 l21 -31 -44 -94 c-82 -175 -73 -164 -124 -165 -25 -1 -59
-8 -76 -17 -16 -8 -56 -20 -88 -26 -33 -6 -62 -13 -64 -16 -9 -9 27 -195 44
-228 9 -18 34 -53 56 -79 l39 -48 -46 -60 c-67 -87 -95 -148 -97 -205 -3 -123
85 -214 197 -202 50 5 110 32 149 66 24 20 66 87 66 103 0 7 4 19 9 27 7 11
13 10 35 -5 57 -36 164 -12 208 47 23 30 48 101 41 112 -7 12 -13 4 -18 -24
-8 -43 -27 -68 -59 -78 -47 -16 -70 -10 -128 29 l-53 35 3 65 c4 97 27 170 53
170 4 0 18 -10 29 -22 19 -21 23 -22 47 -8 15 8 28 20 30 27 7 20 -43 64 -64
57 -72 -23 -98 -64 -114 -181 -6 -43 -11 -79 -12 -80 -3 -2 -160 149 -175 169
-12 15 -6 28 48 102 34 47 65 85 68 84 4 -1 21 1 38 5 28 7 36 20 109 185 43
97 88 198 100 224 l22 47 -38 55 c-22 31 -39 60 -39 65 0 5 -4 11 -8 13 -5 2
-22 23 -39 48 -29 43 -29 47 -16 79 22 52 20 148 -4 202 -24 54 -75 114 -114
134 -15 8 -49 43 -75 77 -27 35 -51 65 -54 68 -3 3 -64 79 -135 170 -72 91
-135 172 -142 180 -96 118 -185 239 -190 259 -3 14 -21 49 -39 77 -65 103
-191 157 -307 132z m-180 -481 c24 -35 98 -95 135 -110 10 -4 9 -9 -3 -19 -15
-12 -134 -119 -199 -178 -16 -14 -59 -52 -96 -85 -38 -33 -77 -68 -87 -78 -21
-21 -19 -22 -40 19 -35 68 -122 140 -211 174 -17 6 -25 14 -20 19 5 5 72 64
149 131 77 68 171 150 209 184 107 94 99 92 118 34 9 -28 29 -69 45 -91z m604
-34 c46 -60 86 -110 89 -113 4 -3 31 -36 60 -75 30 -38 82 -105 117 -148 l63
-79 -50 -25 c-27 -14 -65 -42 -82 -63 l-33 -38 -186 244 -186 243 53 55 c29
30 56 66 60 80 3 15 7 26 9 26 1 0 40 -48 86 -107z m129 -724 c0 -22 3 -21
-67 -23 -29 -1 -56 -6 -61 -11 -5 -6 -26 -41 -47 -80 -21 -38 -58 -106 -82
-149 -23 -44 -43 -83 -43 -88 0 -5 13 -37 29 -71 77 -166 74 -157 54 -172 -10
-8 -21 -11 -24 -7 -4 4 -32 66 -63 138 l-56 132 91 153 c50 85 96 163 104 174
11 18 24 21 89 22 68 1 76 -1 76 -18z m509 -248 l52 -79 -54 -124 c-31 -67
-70 -154 -87 -193 l-32 -70 -14 40 -14 40 71 153 71 152 -38 58 c-22 31 -43
60 -49 64 -10 8 23 50 35 43 4 -2 31 -40 59 -84z m-1584 -156 c46 -133 168
-457 197 -525 6 -14 14 -36 18 -50 l7 -25 -106 0 c-101 0 -109 -2 -182 -36
l-77 -37 -60 152 c-33 83 -91 248 -130 366 -94 287 -88 264 -63 250 24 -12
128 -15 186 -4 46 8 121 40 131 55 14 23 29 -4 79 -146z m1373 -301 c3 -18 -7
-23 -88 -41 -60 -13 -90 -16 -91 -9 0 6 -2 19 -4 29 -2 9 2 17 8 18 7 0 39 6
72 14 77 18 99 15 103 -11z m-1 -122 c-15 -35 -60 -102 -68 -102 -10 0 -79 79
-79 90 0 6 7 10 15 10 8 0 16 0 18 1 6 2 113 27 119 28 4 1 2 -12 -5 -27z
m-47 -274 c41 -40 97 -91 123 -112 51 -42 53 -49 26 -118 -15 -37 -93 -88
-136 -88 -60 0 -115 42 -149 115 -31 64 -30 117 2 185 20 43 50 90 58 90 1 0
35 -33 76 -72z m-913 -587 c76 -1 82 -3 89 -23 4 -13 26 -62 50 -110 l43 -88
-32 0 c-18 -1 -228 -2 -468 -3 l-436 -2 34 75 c19 41 43 94 54 118 l19 43 282
-5 c156 -3 320 -5 365 -5z"/>
<path d="M4788 3862 c-58 -2 -68 -6 -68 -21 0 -16 10 -19 60 -23 74 -5 89 -19
98 -89 12 -87 6 -830 -6 -861 -14 -35 -45 -50 -101 -52 -38 -1 -46 -5 -46 -20
0 -18 11 -19 220 -18 290 1 272 0 272 17 0 8 -5 15 -11 16 -83 4 -113 12 -136
35 l-25 24 0 207 0 207 110 2 c209 4 271 21 342 92 73 73 95 221 48 318 -44
90 -119 138 -249 159 -74 12 -321 15 -508 7z m473 -51 c44 -13 90 -55 114
-101 26 -50 32 -174 11 -236 -35 -108 -102 -144 -270 -148 l-75 -2 0 253 0
253 92 -4 c51 -2 108 -9 128 -15z"/>
</g>
</svg>
